<?xml version="1.0" encoding="UTF-8"?>
<svg width="88px" height="50px" viewBox="0 0 88 50" version="1.1" xmlns="http://www.w3.org/2000/svg" xmlns:xlink="http://www.w3.org/1999/xlink">
    <!-- Generator: sketchtool 50.2 (55047) - http://www.bohemiancoding.com/sketch -->
    <title>E766CF8C-D5D2-4450-8BA3-0017572A9E75</title>
    <desc>Created with sketchtool.</desc>
    <defs></defs>
    <g id="Symbols" stroke="none" stroke-width="1" fill="none" fill-rule="evenodd">
        <g id="footer" transform="translate(-150.000000, -28.000000)" fill="#6E6A75" fill-rule="nonzero">
            <g id="Group-17">
                <g transform="translate(150.000000, 24.000000)">
                    <g id="logo-gray" transform="translate(0.000000, 4.000000)">
                        <path d="M56.0784314,17.5043103 L58.9513725,8.52155172 L51.8682353,10.8836207 L52.36,13.2155172 L43.7454902,0 L35.1180392,13.2155172 L35.6141176,10.8836207 L28.5482353,8.52155172 L31.4254902,17.5 C34.0738448,17.0683899 36.7596974,16.9109472 39.4403922,17.0301724 C36.860624,17.3958356 34.3261908,18.0300308 31.8784314,18.9224138 L32.6376471,21.2887931 C36.2978365,20.5868405 40.0186252,20.2489833 43.7454902,20.2801724 C47.4723552,20.2489833 51.1931439,20.5868405 54.8533333,21.2887931 L55.612549,18.9224138 C53.1647896,18.0300308 50.6303564,17.3958356 48.0505882,17.0301724 C50.7357547,16.9090234 53.4262453,17.0679283 56.0784314,17.5043103 Z M43.7584314,15.0172414 L41.0062745,10.5689655 L43.7454902,6.14655172 L46.4803922,10.5905172 L43.7584314,15.0172414 Z" id="Shape"></path>
                        <path d="M0,34.0517241 L0,28.237069 C0,26.9439655 0.616862745,26.3448276 1.89372549,26.3448276 L5.44392157,26.3448276 C6.73803922,26.3448276 7.33333333,26.9482759 7.33333333,28.237069 L7.33333333,29.5301724 L5.07294118,29.5301724 L5.07294118,28.5818966 C5.07294118,28.3793103 5.00392157,28.3232759 4.81411765,28.3232759 L2.53647059,28.3232759 C2.34666667,28.3232759 2.27764706,28.3793103 2.27764706,28.5818966 L2.27764706,33.7543103 C2.27764706,33.9482759 2.34666667,34.0172414 2.53647059,34.0172414 L4.81411765,34.0172414 C5.00392157,34.0172414 5.07294118,33.9482759 5.07294118,33.7543103 L5.07294118,32.375 L3.45098039,32.375 L3.45098039,30.4956897 L7.33333333,30.4956897 L7.33333333,34.0517241 C7.33333333,35.3448276 6.71647059,35.9396552 5.44392157,35.9396552 L1.89372549,35.9396552 C0.616862745,35.9353448 0,35.3189655 0,34.0517241 Z" id="Shape"></path>
                        <path d="M14.0411765,33.9094828 L10.9827451,33.9094828 L10.434902,35.9353448 L8.07529412,35.9353448 L10.9827451,26.3448276 L14.1231373,26.3448276 L17.0435294,35.9353448 L14.5890196,35.9353448 L14.0411765,33.9094828 Z M13.5192157,31.9784483 L12.5098039,28.2241379 L11.4960784,31.9784483 L13.5192157,31.9784483 Z" id="Shape"></path>
                        <polygon id="Shape" points="18.1176471 26.3448276 20.6541176 26.3448276 23.0094118 31.6896552 25.3560784 26.3448276 27.8796078 26.3448276 27.8796078 35.9353448 25.6709804 35.9353448 25.6709804 30.112069 23.7254902 34.7155172 22.2156863 34.7155172 20.2960784 30.112069 20.2960784 35.9353448 18.1176471 35.9353448"></polygon>
                        <polygon id="Shape" points="29.8121569 26.3448276 36.4207843 26.3448276 36.4207843 28.3189655 32.1070588 28.3189655 32.1070588 30.0431034 35.5580392 30.0431034 35.5580392 31.987069 32.1070588 31.987069 32.1070588 33.9439655 36.4207843 33.9439655 36.4207843 35.9181034 29.8121569 35.9181034"></polygon>
                        <path d="M37.572549,34.0517241 L37.572549,32.7844828 L39.82,32.7844828 L39.82,33.7586207 C39.82,33.9482759 39.8890196,34.0172414 40.0831373,34.0172414 L42.24,34.0172414 C42.4341176,34.0172414 42.4988235,33.9482759 42.4988235,33.7586207 L42.4988235,32.7586207 C42.4988235,32.5387931 42.4039216,32.4698276 42.114902,32.4008621 L39.5654902,31.7844828 C38.2929412,31.4698276 37.5941176,31.112069 37.5941176,29.8103448 L37.5941176,28.237069 C37.5941176,26.9439655 38.2109804,26.3448276 39.4835294,26.3448276 L42.7188235,26.3448276 C44.0129412,26.3448276 44.612549,26.9482759 44.612549,28.237069 L44.612549,29.387931 L42.3737255,29.387931 L42.3737255,28.5258621 C42.3737255,28.3189655 42.3047059,28.262931 42.1105882,28.262931 L40.1392157,28.262931 C39.945098,28.262931 39.8760784,28.3189655 39.8760784,28.5258621 L39.8760784,29.4137931 C39.8760784,29.6336207 39.9580392,29.7025862 40.26,29.7715517 L42.8094118,30.387931 C44.1035294,30.7025862 44.785098,31.0603448 44.785098,32.362069 L44.785098,34.0517241 C44.785098,35.3448276 44.1682353,35.9396552 42.8913725,35.9396552 L39.4662745,35.9396552 C38.1894118,35.9353448 37.572549,35.3189655 37.572549,34.0517241 Z" id="Shape"></path>
                        <polygon id="Shape" points="46.42 26.3448276 53.0286275 26.3448276 53.0286275 28.3189655 48.6933333 28.3189655 48.6933333 30.0431034 52.1443137 30.0431034 52.1443137 31.987069 48.6933333 31.987069 48.6933333 33.9439655 53.0286275 33.9439655 53.0286275 35.9181034 46.42 35.9181034"></polygon>
                        <path d="M62.1607843,35.9353448 L59.7882353,35.9353448 L58.1835294,32.6336207 L56.854902,32.6336207 L56.854902,35.9353448 L54.5772549,35.9353448 L54.5772549,26.3448276 L59.9262745,26.3448276 C61.2203922,26.3448276 61.8156863,26.9482759 61.8156863,28.237069 L61.8156863,30.6336207 C61.8156863,31.7155172 61.3843137,32.3060345 60.5,32.4698276 L62.1607843,35.9353448 Z M59.2792157,30.762931 C59.4733333,30.762931 59.5423529,30.7068966 59.5423529,30.5 L59.5423529,28.5387931 C59.5423529,28.3318966 59.4733333,28.2758621 59.2792157,28.2758621 L56.854902,28.2758621 L56.854902,30.7456897 L59.2792157,30.762931 Z" id="Shape"></path>
                        <polygon id="Shape" points="62.5490196 26.3448276 65.0164706 26.3448276 66.8282353 33.512931 68.6356863 26.3448276 71.0341176 26.3448276 68.1007843 35.9353448 65.4823529 35.9353448"></polygon>
                        <polygon id="Shape" points="72.1168627 26.3448276 78.7254902 26.3448276 78.7254902 28.3189655 74.4117647 28.3189655 74.4117647 30.0431034 77.8627451 30.0431034 77.8627451 31.987069 74.4117647 31.987069 74.4117647 33.9439655 78.7254902 33.9439655 78.7254902 35.9181034 72.1168627 35.9181034"></polygon>
                        <path d="M87.8576471,35.9353448 L85.485098,35.9353448 L83.8803922,32.6336207 L82.5517647,32.6336207 L82.5517647,35.9353448 L80.2741176,35.9353448 L80.2741176,26.3448276 L85.6231373,26.3448276 C86.8956863,26.3448276 87.5168627,26.9482759 87.5168627,28.237069 L87.5168627,30.6336207 C87.5168627,31.7155172 87.0854902,32.3060345 86.1968627,32.4698276 L87.8576471,35.9353448 Z M84.9803922,30.762931 C85.1701961,30.762931 85.2392157,30.7068966 85.2392157,30.5 L85.2392157,28.5387931 C85.2392157,28.3318966 85.1701961,28.2758621 84.9803922,28.2758621 L82.5517647,28.2758621 L82.5517647,30.7456897 L84.9803922,30.762931 Z" id="Shape"></path>
                        <polygon id="Shape" points="30.0235294 49.8362069 28.0780392 45.887931 26.6760784 47.7241379 26.6760784 49.8362069 24.4415686 49.8362069 24.4415686 40.2456897 26.6760784 40.2456897 26.6760784 44.6724138 29.7647059 40.2456897 32.3529412 40.2456897 29.5145098 43.9655172 32.4909804 49.8318966"></polygon>
                        <polygon id="Shape" points="33.534902 40.2456897 35.8039216 40.2456897 35.8039216 49.8362069 33.534902 49.8362069"></polygon>
                        <polygon id="Shape" points="37.7321569 40.2456897 40.0486275 40.2456897 43.434902 45.875 43.434902 40.2456897 45.6435294 40.2456897 45.6435294 49.8362069 43.5298039 49.8362069 39.9364706 43.887931 39.9364706 49.8362069 37.7321569 49.8362069"></polygon>
                        <path d="M47.3862745,47.9439655 L47.3862745,42.137931 C47.3862745,40.8448276 48.0031373,40.2456897 49.2756863,40.2456897 L52.8301961,40.2456897 C54.1243137,40.2456897 54.7196078,40.8491379 54.7196078,42.137931 L54.7196078,43.4094828 L52.4592157,43.4094828 L52.4592157,42.4655172 C52.4592157,42.2586207 52.3901961,42.2025862 52.1960784,42.2025862 L49.9227451,42.2025862 C49.7286275,42.2025862 49.6596078,42.2586207 49.6596078,42.4655172 L49.6596078,47.637931 C49.6596078,47.8275862 49.7286275,47.8965517 49.9227451,47.8965517 L52.1960784,47.8965517 C52.3901961,47.8965517 52.4592157,47.8275862 52.4592157,47.637931 L52.4592157,46.2931034 L50.8415686,46.2931034 L50.8415686,44.3965517 L54.7239216,44.3965517 L54.7239216,47.9439655 C54.7239216,49.237069 54.1070588,49.8362069 52.8345098,49.8362069 L49.28,49.8362069 C48.0031373,49.8362069 47.3862745,49.2198276 47.3862745,47.9439655 Z" id="Shape"></path>
                        <path d="M56.1215686,47.9439655 L56.1215686,46.6853448 L58.3690196,46.6853448 L58.3690196,47.6551724 C58.3690196,47.8491379 58.4380392,47.9181034 58.6278431,47.9181034 L60.7847059,47.9181034 C60.9745098,47.9181034 61.0435294,47.8491379 61.0435294,47.6551724 L61.0435294,46.6551724 C61.0435294,46.4396552 60.9486275,46.3706897 60.6596078,46.3017241 L58.1231373,45.6896552 C56.8290196,45.375 56.147451,45.0172414 56.147451,43.7155172 L56.147451,42.137931 C56.147451,40.8448276 56.7643137,40.2456897 58.0411765,40.2456897 L61.2764706,40.2456897 C62.5490196,40.2456897 63.1658824,40.8491379 63.1658824,42.137931 L63.1658824,43.2887931 L60.9184314,43.2887931 L60.9184314,42.4267241 C60.9184314,42.2241379 60.8494118,42.1681034 60.6596078,42.1681034 L58.6666667,42.1681034 C58.4768627,42.1681034 58.4078431,42.2241379 58.4078431,42.4267241 L58.4078431,43.3189655 C58.4078431,43.5387931 58.4898039,43.6077586 58.7917647,43.6767241 L61.3411765,44.2931034 C62.6352941,44.6077586 63.3168627,44.9612069 63.3168627,46.262931 L63.3168627,47.9482759 C63.3168627,49.2413793 62.7,49.8405172 61.4231373,49.8405172 L57.9721569,49.8405172 C56.7384314,49.8362069 56.1215686,49.2198276 56.1215686,47.9439655 Z" id="Shape"></path>
                        <polygon id="Shape" points="67.8419608 45.6637931 67.8419608 43.7844828 87.4694118 44.737069"></polygon>
                        <polygon id="Shape" points="19.9164706 43.7844828 19.9164706 45.6637931 0.289019608 44.7155172"></polygon>
                    </g>
                </g>
            </g>
        </g>
    </g>
</svg>