<?xml version="1.0" encoding="utf-8"?>
<!-- Generator: Adobe Illustrator 23.0.3, SVG Export Plug-In . SVG Version: 6.00 Build 0)  -->
<svg version="1.1" id="Layer_1" xmlns="http://www.w3.org/2000/svg" xmlns:xlink="http://www.w3.org/1999/xlink" x="0px" y="0px"
	 viewBox="0 0 341 133" style="enable-background:new 0 0 341 133;" xml:space="preserve">
<style type="text/css">
	.st0{fill:#252525;}
	.st1{fill:#FFD600;}
</style>
<g>
	<path class="st0" d="M58.23,67.34l-1.87,8.19c0,0.7-0.35,1.27-1.05,1.7c-0.76,0.54-1.57,0.68-2.43,0.41H40.71
		c-0.38,0-1.07,0.01-2.07,0.04c-1,0.03-1.73,0.07-2.19,0.12c-0.46,0.05-1.04,0.22-1.74,0.49c-0.7,0.27-1.26,0.72-1.66,1.34
		c-0.41,0.62-0.74,1.42-1.01,2.39c-0.65,2.76-0.81,4.65-0.49,5.68c0.49,1.51,1.89,2.7,4.22,3.57c0.38,0.11,1.65,0.42,3.81,0.93
		c2.16,0.51,3.82,0.96,4.99,1.34c1.16,0.38,2.58,1.07,4.26,2.07c1.68,1,3.03,2.15,4.05,3.45c1.78,2.38,2.11,7.07,0.97,14.07
		c-1.14,7-3.11,11.83-5.92,14.48c-3.41,2.87-7.25,4.41-11.52,4.62H9c-1.08,0-1.84-0.35-2.27-1.05c-0.54-0.86-0.81-1.62-0.81-2.27
		l3.33-12.25h1.05c-0.6,1.68-0.32,2.95,0.81,3.81c0.97,0.7,1.87,0.97,2.68,0.81c0.81,0,2.26,0.01,4.34,0.04
		c2.08,0.03,3.69,0.04,4.83,0.04c1.14,0,2.5-0.04,4.1-0.12c1.59-0.08,2.95-0.22,4.05-0.41c1.11-0.19,2.04-0.45,2.8-0.77
		c2.65-0.92,4.24-3.73,4.78-8.43c0.27-1.78-0.35-3.2-1.87-4.26c-1.51-1.05-3.43-1.87-5.76-2.43c-2.33-0.57-4.65-1.22-6.97-1.95
		c-2.33-0.73-4.27-1.95-5.84-3.65c-1.57-1.7-2.24-3.91-2.03-6.61c0.16-2.38,0.3-4.11,0.41-5.19c0.11-1.08,0.34-2.6,0.69-4.54
		c0.35-1.95,0.92-3.7,1.7-5.27c0.78-1.57,1.77-3.13,2.96-4.7c0.7-0.81,1.14-1.31,1.3-1.5c0.16-0.19,0.69-0.65,1.58-1.38
		c0.89-0.73,1.69-1.24,2.39-1.54c0.7-0.3,1.69-0.59,2.96-0.89c1.27-0.3,2.64-0.42,4.1-0.37H58.23z"/>
	<path class="st0" d="M65.28,81.85c-0.54-0.92-1.11-1.46-1.7-1.62h13.54c0.27,0,0.62,0.12,1.05,0.37c0.43,0.24,0.7,0.47,0.81,0.69
		c0.43,0.49,0.59,1.19,0.49,2.11l-9.97,44.28c-0.11,1.68-0.11,2.68,0,3c0.81,1.03,1.57,1.54,2.27,1.54H59.12
		c-1.03,0-1.76-0.35-2.19-1.05c-0.38-0.43-0.57-1.27-0.57-2.51l9.73-43.14C66.09,84.15,65.82,82.94,65.28,81.85z M67.71,75.37
		l1.3-7.38h9.73c0.92,0,1.49,0.04,1.7,0.12c0.22,0.08,0.46,0.28,0.73,0.61c0,0.05,0.09,0.32,0.28,0.81
		c0.19,0.49,0.28,0.84,0.28,1.05l-1.54,6.73H70.8c-1.35,0-2.16-0.22-2.43-0.65c0-0.11-0.11-0.31-0.32-0.61
		C67.82,75.76,67.71,75.53,67.71,75.37z"/>
	<path class="st0" d="M83.61,90.86l1.87-9.25c3.03,0,6.35-1.03,9.97-3.08c2.97-1.68,5.14-4.38,6.49-8.11h4.46l-1.95,9.57h12.16
		l-0.57,8.19c-0.27,0.87-0.84,1.51-1.7,1.95c-0.65,0.49-1.54,0.73-2.68,0.73h-6.89c-1.41,0.16-2.24,0.35-2.51,0.57
		c-0.43,0.38-0.78,1.11-1.05,2.19l-5.76,24.65c0,1.19,0.08,1.89,0.24,2.11c0.11,0.43,0.34,0.81,0.69,1.13
		c0.35,0.32,0.77,0.49,1.26,0.49h8.76c0.38,0,0.92-0.27,1.62-0.81l1.05-0.81c0.92-0.59,1.51-1.43,1.78-2.51l-2.84,11.92
		c-0.43,1.24-0.97,1.92-1.62,2.03c-1.3,0.43-2.14,0.65-2.51,0.65H82.96c-0.65,0-1.33-0.35-2.03-1.05c-0.92-0.7-1.38-1.68-1.38-2.92
		l8.43-37.63H83.61z"/>
	<path class="st0" d="M151.65,118.92c1.46-0.81,2.6-1.81,3.41-3l-3,12.16c-0.49,1.08-1.3,2.03-2.43,2.84
		c-0.97,0.65-2.46,1.08-4.46,1.3h-16.87c-4.76-0.32-7.89-1.16-9.41-2.51c-2.06-1.95-3.2-5.39-3.45-10.34
		c-0.24-4.95,0.24-10,1.46-15.17c1.22-5.16,2.93-9.95,5.15-14.35c2.22-4.41,4.49-7.15,6.81-8.23c2.54-1.08,7.35-1.59,14.44-1.54
		c7.08,0.05,11.76,0.57,14.03,1.54c1.57,0.76,2.73,2.06,3.49,3.89c0.76,1.84,1.16,3.72,1.22,5.64c0.05,1.92-0.08,4.04-0.41,6.37
		c-0.32,2.33-0.65,4.1-0.97,5.31c-0.32,1.22-0.62,2.28-0.89,3.2c-0.16,1.13-1.46,1.7-3.89,1.7h-26.6c0.43-1.73,0.76-3.11,0.97-4.14
		l1.22-4.22h18.17c0.38-1.73,0.59-3.35,0.65-4.87c0.05-1.51-0.57-2.77-1.87-3.77c-1.3-1-3.27-1.5-5.92-1.5
		c-1.08,0-2.07,0.11-2.96,0.32c-0.89,0.22-1.65,0.43-2.27,0.65c-0.62,0.22-1.22,0.66-1.78,1.34c-0.57,0.68-1.01,1.2-1.34,1.58
		c-0.32,0.38-0.7,1.11-1.14,2.19c-0.43,1.08-0.73,1.88-0.89,2.39c-0.16,0.51-0.47,1.5-0.93,2.96c-0.46,1.46-0.8,2.51-1.01,3.16
		c-1.41,7.03-2.06,11.3-1.95,12.81c0.11,0.87,0.32,1.51,0.65,1.95c0.65,1.03,2.43,1.54,5.35,1.54h9.25c0.16,0,0.38,0,0.65,0
		c2.05,0,3.53-0.07,4.42-0.2C149.42,119.8,150.46,119.46,151.65,118.92z"/>
	<path class="st0" d="M163.33,79.91c-0.27,0.27-0.59,0.62-0.97,1.05l2.19-10.3c0-0.7,0.35-1.19,1.05-1.46
		c0.43-0.27,1.03-0.41,1.78-0.41h40.14c0.32,0,0.68,0,1.05,0c0.38,0,0.63,0,0.77,0c0.13,0,0.28,0,0.45,0c0.16,0,0.3-0.01,0.41-0.04
		c0.11-0.03,0.22-0.07,0.32-0.12c0.11-0.05,0.24-0.13,0.41-0.24c0.11,0,0.31-0.15,0.61-0.45c0.3-0.3,0.45-0.5,0.45-0.61h0.57
		l-2.19,9.89c-0.49,0.97-0.84,1.51-1.05,1.62c-0.7,0.43-1.38,0.65-2.03,0.65h-14.11l-11.76,50.44c0,0.16,0.07,0.43,0.2,0.81
		c0.13,0.38,0.2,0.6,0.2,0.65c0,0.11,0.59,0.38,1.78,0.81l-15.41,0.24c-0.16,0-0.42-0.15-0.77-0.45c-0.35-0.3-0.55-0.45-0.61-0.45
		c-0.54-0.22-0.81-0.76-0.81-1.62l12.33-50.44H165.6C164.52,79.5,163.76,79.64,163.33,79.91z"/>
	<path class="st0" d="M216.12,80.96c-0.27-0.7-0.76-1.05-1.46-1.05h12.41c0.38,0,1.11,0.14,2.19,0.41c0.65,0.38,1.07,1.15,1.26,2.31
		c0.19,1.16,0.17,2.04-0.04,2.64l1.87-3.57c0.32-0.54,0.92-1,1.78-1.38c0.05,0,0.24-0.07,0.57-0.2c0.32-0.13,0.57-0.2,0.73-0.2
		h12.81l-1.78,6.89c0,0.38-0.32,1.08-0.97,2.11c-0.27,0.32-0.7,0.65-1.3,0.97c-0.6,0.32-1.11,0.49-1.54,0.49h-9.33
		c-1.68,0-2.97,0.35-3.89,1.05c-0.81,0.43-1.43,1.38-1.87,2.84l-7.95,34.06c-0.05,0.6-0.07,0.99-0.04,1.18
		c0.03,0.19,0.11,0.43,0.24,0.73c0.13,0.3,0.2,0.5,0.2,0.61c0.49,0.92,1.22,1.38,2.19,1.38h-13.06c-1.62,0-2.57-0.35-2.84-1.05
		c-0.43-0.54-0.65-1.27-0.65-2.19l10.46-45.01C216.5,82.5,216.5,81.5,216.12,80.96z"/>
	<path class="st0" d="M278.65,118.92c1.46-0.81,2.59-1.81,3.41-3l-3,12.16c-0.49,1.08-1.3,2.03-2.43,2.84
		c-0.97,0.65-2.46,1.08-4.46,1.3h-16.87c-4.76-0.32-7.89-1.16-9.41-2.51c-2.06-1.95-3.2-5.39-3.45-10.34
		c-0.24-4.95,0.24-10,1.46-15.17c1.22-5.16,2.93-9.95,5.15-14.35c2.22-4.41,4.49-7.15,6.81-8.23c2.54-1.08,7.35-1.59,14.44-1.54
		c7.08,0.05,11.76,0.57,14.03,1.54c1.57,0.76,2.73,2.06,3.49,3.89c0.76,1.84,1.16,3.72,1.22,5.64c0.05,1.92-0.08,4.04-0.41,6.37
		c-0.32,2.33-0.65,4.1-0.97,5.31c-0.32,1.22-0.62,2.28-0.89,3.2c-0.16,1.13-1.46,1.7-3.89,1.7h-26.6c0.43-1.73,0.76-3.11,0.97-4.14
		l1.22-4.22h18.17c0.38-1.73,0.59-3.35,0.65-4.87c0.05-1.51-0.57-2.77-1.87-3.77c-1.3-1-3.27-1.5-5.92-1.5
		c-1.08,0-2.07,0.11-2.96,0.32c-0.89,0.22-1.65,0.43-2.27,0.65c-0.62,0.22-1.22,0.66-1.78,1.34c-0.57,0.68-1.01,1.2-1.34,1.58
		c-0.32,0.38-0.7,1.11-1.13,2.19c-0.43,1.08-0.73,1.88-0.89,2.39c-0.16,0.51-0.47,1.5-0.93,2.96c-0.46,1.46-0.8,2.51-1.01,3.16
		c-1.41,7.03-2.06,11.3-1.95,12.81c0.11,0.87,0.32,1.51,0.65,1.95c0.65,1.03,2.43,1.54,5.35,1.54h9.24c0.16,0,0.38,0,0.65,0
		c2.05,0,3.53-0.07,4.42-0.2C276.42,119.8,277.46,119.46,278.65,118.92z"/>
	<path class="st0" d="M314.17,79.99h20.76l-1.38,7.7c0,0.22-0.16,0.57-0.49,1.05c-0.32,0.49-0.6,0.78-0.81,0.89
		c-1.14,0.81-2.19,1.22-3.16,1.22h-12c-3.19,0-5.3,0.62-6.33,1.87c-1.95,2.87-3.56,6.84-4.83,11.92c-1.27,5.08-1.74,8.6-1.42,10.54
		c0.22,1.19,0.53,2.2,0.93,3.04c0.41,0.84,0.8,1.46,1.18,1.87c0.38,0.41,0.94,0.72,1.7,0.93c0.76,0.22,1.32,0.34,1.7,0.37
		c0.38,0.03,1.08,0.01,2.11-0.04c1.03-0.05,1.7-0.08,2.03-0.08c5.62,0,9.39-0.3,11.31-0.89c1.92-0.59,3.2-1.68,3.85-3.24
		l-2.51,11.11c-0.27,1.19-0.76,2-1.46,2.43c-1.24,1.03-2.35,1.54-3.32,1.54h-17.52c-2.6,0.16-5.16-0.24-7.7-1.22
		c-4.65-2-6.7-7-6.16-15c0.43-4.54,1.1-8.88,1.99-13.02c0.89-4.14,2.31-8.22,4.26-12.25c1.95-4.03,4.22-6.77,6.81-8.23
		C307.17,80.83,310.65,79.99,314.17,79.99z"/>
</g>
<polygon class="st0" points="335.5,66.69 226.02,66.69 214.66,40.74 242.24,56.96 247.91,46.41 276.3,57.77 243.86,27.76 
	226.83,27.76 213.85,20.46 226.83,24.52 243.05,10.73 "/>
<polygon class="st0" points="6.24,67.5 131.13,1 209.8,63.45 163.57,63.45 160.33,66.69 93.02,66.69 122.21,61.01 131.94,52.09 
	151.41,61.82 143.3,39.93 178.17,56.15 127.89,18.84 "/>
<polygon class="st1" points="221.15,66.69 173.3,26.95 195.2,26.95 169.25,1 229.26,34.25 206.55,34.25 "/>
</svg>
